<svg width="24" height="24" viewBox="0 0 24 24" fill="none" xmlns="http://www.w3.org/2000/svg">
<path fill-rule="evenodd" clip-rule="evenodd" d="M4.41382 8.76099C4.74871 7.00204 5.59653 5.32081 6.95581 3.95982C10.5644 0.346725 16.4154 0.346725 20.0239 3.95982C21.1247 5.06202 22.0969 6.69355 22.5221 8.50489C22.9498 10.3272 22.8312 12.3742 21.6759 14.2356C21.6168 14.3309 21.5802 14.3899 21.5543 14.4341C21.5424 14.4545 21.5361 14.4661 21.5335 14.4711C21.5311 14.4775 21.5296 14.4819 21.5287 14.4847C21.5287 14.488 21.5289 14.4936 21.5294 14.5021C21.5301 14.506 21.5318 14.5147 21.5352 14.5295C21.5437 14.5674 21.5567 14.618 21.5799 14.7074L21.5866 14.7334C21.7193 15.2459 21.8283 15.6672 21.8924 16.0076C21.957 16.3502 21.9943 16.696 21.9257 17.0337C21.7299 17.9967 20.9781 18.75 20.0152 18.9462C19.6774 19.015 19.3315 18.9776 18.9892 18.9129C18.6492 18.8487 18.2283 18.7395 17.7165 18.6067L17.6905 18.5999C17.6012 18.5768 17.5507 18.5637 17.5129 18.5552C17.4982 18.5518 17.4896 18.5502 17.4856 18.5495C17.4778 18.5489 17.4725 18.5488 17.4691 18.5487C17.4664 18.5496 17.4622 18.5511 17.4564 18.5532C17.4513 18.5559 17.4396 18.5622 17.419 18.5742C17.3745 18.6002 17.315 18.6369 17.2192 18.6962C16.5993 19.0798 15.954 19.3479 15.3004 19.5177C15.058 19.8554 14.7853 20.1778 14.4826 20.4808C13.5907 21.3739 12.2284 22.1843 10.711 22.5478C9.18314 22.9137 7.44232 22.8371 5.86712 21.8624C5.79073 21.8151 5.74406 21.7863 5.70964 21.7661C5.68217 21.7727 5.64442 21.7824 5.58183 21.7986L5.5566 21.8052C5.13838 21.9137 4.78811 22.0046 4.50362 22.0584C4.21693 22.1125 3.91162 22.1473 3.60775 22.0854C2.76261 21.9132 2.10287 21.252 1.93112 20.4071C1.86939 20.1034 1.90407 19.7981 1.95812 19.5112C2.01175 19.2264 2.10252 18.8758 2.21093 18.457L2.21747 18.4318C2.23387 18.3684 2.24362 18.3305 2.25016 18.3029C2.23006 18.2687 2.20137 18.2224 2.15405 18.1461C1.18036 16.5774 1.0823 14.8541 1.44081 13.3267C1.79675 11.8103 2.60992 10.445 3.53331 9.52044C3.81153 9.24187 4.10602 8.98867 4.41382 8.76099ZM8.01714 5.01982C11.0398 1.99339 15.94 1.99339 18.9626 5.01982C19.8726 5.93094 20.7023 7.31632 21.0618 8.84766C21.4186 10.368 21.3045 11.9895 20.4014 13.4445C20.3929 13.4583 20.3842 13.4722 20.3755 13.4862C20.2894 13.6244 20.1967 13.7733 20.1429 13.9084C20.0475 14.1482 20.0145 14.3652 20.0342 14.6225C20.0453 14.7671 20.0842 14.9161 20.1183 15.0471C20.1215 15.0593 20.1247 15.0714 20.1277 15.0833C20.2688 15.6282 20.3647 16.0004 20.4184 16.2852C20.4726 16.5735 20.4654 16.6875 20.4557 16.735C20.3797 17.109 20.088 17.4005 19.7157 17.4764C19.6688 17.4859 19.5553 17.4933 19.2675 17.439C18.9832 17.3853 18.6116 17.2893 18.0673 17.148C18.0554 17.1449 18.0433 17.1418 18.0311 17.1386C17.9004 17.1044 17.7515 17.0655 17.6073 17.0544C17.3503 17.0345 17.1347 17.0671 16.895 17.1621C16.7602 17.2156 16.6108 17.3083 16.472 17.3946C16.4578 17.4034 16.4438 17.4121 16.4299 17.4207C16.4026 17.4376 16.3752 17.4542 16.3477 17.4705C17.252 14.7706 16.6308 11.6714 14.4826 9.52044C12.2562 7.2913 9.01207 6.70388 6.24868 7.75716C6.625 6.75929 7.21431 5.82365 8.01714 5.01982ZM5.52027 9.81521C7.94736 8.17382 11.273 8.4295 13.4213 10.5804C15.5518 12.7137 15.8212 16.0073 14.2263 18.4329C13.9969 18.7817 13.7287 19.113 13.4213 19.4208C12.7248 20.1181 11.6089 20.7903 10.3616 21.089C9.12497 21.3852 7.81485 21.3036 6.65638 20.5868C6.64488 20.5797 6.63308 20.5724 6.62102 20.5649C6.50948 20.4955 6.37543 20.4122 6.25247 20.3634C6.03639 20.2777 5.83867 20.2478 5.6069 20.2657C5.47549 20.2759 5.34087 20.3112 5.23562 20.3388C5.22512 20.3415 5.21492 20.3442 5.20504 20.3467C4.75499 20.4635 4.45406 20.5412 4.22533 20.5844C3.99311 20.6282 3.92017 20.6182 3.90725 20.6156C3.65276 20.5637 3.45311 20.3644 3.40107 20.1083C3.39833 20.0948 3.3884 20.0214 3.43221 19.7888C3.47536 19.5596 3.55297 19.2582 3.6696 18.8077C3.67216 18.7978 3.67483 18.7876 3.67757 18.7771C3.70514 18.6716 3.74035 18.5368 3.75044 18.4051C3.76822 18.1731 3.73795 17.9742 3.65196 17.758C3.60295 17.6348 3.51961 17.5012 3.45037 17.3902C3.4429 17.3782 3.4356 17.3665 3.42852 17.3551C2.70705 16.1927 2.61349 14.8949 2.90112 13.6695C3.19133 12.4331 3.86208 11.3139 4.59464 10.5804C4.88408 10.2906 5.19431 10.0357 5.52027 9.81521Z" fill="#09FF3F"/>
<path d="M10.9998 15C10.9998 15.5523 11.4475 16 11.9998 16C12.5521 16 12.9998 15.5523 12.9998 15C12.9998 14.4477 12.5521 14 11.9998 14C11.4475 14 10.9998 14.4477 10.9998 15Z" fill="#09FF3F"/>
<path d="M7.99978 15C7.99978 15.5523 8.4475 16 8.99978 16C9.55207 16 9.99978 15.5523 9.99978 15C9.99978 14.4477 9.55207 14 8.99978 14C8.4475 14 7.99978 14.4477 7.99978 15Z" fill="#09FF3F"/>
<path d="M4.99978 15C4.99978 15.5523 5.4475 16 5.99978 16C6.55207 16 6.99978 15.5523 6.99978 15C6.99978 14.4477 6.55207 14 5.99978 14C5.4475 14 4.99978 14.4477 4.99978 15Z" fill="#09FF3F"/>
</svg>
